<svg id="Layer_1" data-name="Layer 1" xmlns="http://www.w3.org/2000/svg" viewBox="0 0 600 600"><defs><style>.cls-1{fill:none;}.cls-1,.cls-2{stroke:#fff;stroke-miterlimit:10;stroke-width:5px;}.cls-2,.cls-4{fill:#fff;}.cls-3{isolation:isolate;}</style></defs><rect class="cls-1" x="90.49" y="61.9" width="429.32" height="301.86"/><line class="cls-1" x1="90.57" y1="42.84" x2="519.75" y2="42.84"/><line class="cls-1" x1="71.36" y1="364.19" x2="71.36" y2="61.74"/><polygon class="cls-2" points="520.8 43.09 501.2 36.91 501.2 49.27 520.8 43.09"/><polygon class="cls-2" points="71.38 364.38 77.56 344.79 65.2 344.79 71.38 364.38"/><line class="cls-1" x1="305.36" y1="550.71" x2="305.36" y2="494.38"/><polygon class="cls-2" points="305.38 554.38 311.56 537.61 299.2 537.61 305.38 554.38"/><g class="cls-3"><path class="cls-4" d="M204.54,169.28a18.51,18.51,0,0,1-1.3,7.09,13.88,13.88,0,0,1-5.52,6.34,18.16,18.16,0,0,1-17.94-.1,13.84,13.84,0,0,1-5.52-6.72,17.47,17.47,0,0,1-1.23-6.68V148.68a11.21,11.21,0,0,1,1.95-6.51,12.43,12.43,0,0,1,5.42-4.36,19.49,19.49,0,0,1,8-1.54,18.85,18.85,0,0,1,7.84,1.54,12.29,12.29,0,0,1,5.28,4.29,11.09,11.09,0,0,1,1.88,6.38v1.91a.8.8,0,0,1-.24.58.78.78,0,0,1-.58.24h-8A.78.78,0,0,1,194,151a.8.8,0,0,1-.24-.58v-.62a5.09,5.09,0,0,0-1.5-3.75,5.24,5.24,0,0,0-3.88-1.5,5.69,5.69,0,0,0-4.13,1.54,5.18,5.18,0,0,0-1.6,3.92v6.41c0,.13,0,.21.14.24a.27.27,0,0,0,.27-.11,11,11,0,0,1,7.43-2.38,14.35,14.35,0,0,1,7.33,1.87,13.06,13.06,0,0,1,5.08,5.42A16.62,16.62,0,0,1,204.54,169.28Zm-9.62.13a8.43,8.43,0,0,0-1.09-4.5,5.51,5.51,0,0,0-5-2.73c-2.45,0-4.16.94-5.11,2.8a9.07,9.07,0,0,0-1,4.57,9,9,0,0,0,.88,4.16,5.92,5.92,0,0,0,10.3,0A8.5,8.5,0,0,0,194.92,169.41Z"/><path class="cls-4" d="M244.6,164a.78.78,0,0,1,.24.58v6.89a.82.82,0,0,1-.82.82h-2.93a.3.3,0,0,0-.34.34v11.11a.78.78,0,0,1-.24.58.8.8,0,0,1-.58.24h-8a.82.82,0,0,1-.82-.82V172.62a.3.3,0,0,0-.34-.34H209.86a.77.77,0,0,1-.58-.24.78.78,0,0,1-.24-.58V166a3.55,3.55,0,0,1,.2-1l12.28-27.55a1,1,0,0,1,.95-.61H231a.74.74,0,0,1,.65.24c.12.15.1.39,0,.71l-11.39,25.57a.28.28,0,0,0,0,.28.22.22,0,0,0,.21.13h10.36a.3.3,0,0,0,.34-.34V155a.82.82,0,0,1,.82-.82h8a.8.8,0,0,1,.58.24.78.78,0,0,1,.24.58v8.45a.3.3,0,0,0,.34.34H244A.78.78,0,0,1,244.6,164Z"/><path class="cls-4" d="M255.54,181.11q-4.36-4.2-4.36-11.43v-18c0-4.72,1.45-8.48,4.36-11.25s6.87-4.16,11.87-4.16,9,1.39,11.9,4.16,4.4,6.53,4.4,11.25v18q0,7.23-4.4,11.43t-11.9,4.19Q259.91,185.3,255.54,181.11Zm16.74-5.94a6.89,6.89,0,0,0,1.81-5V151.41a6.89,6.89,0,0,0-1.81-5,6.45,6.45,0,0,0-4.87-1.88,6.37,6.37,0,0,0-4.81,1.88,6.94,6.94,0,0,0-1.81,5v18.75a6.94,6.94,0,0,0,1.81,5,6.37,6.37,0,0,0,4.81,1.88A6.45,6.45,0,0,0,272.28,175.17Z"/><path class="cls-4" d="M288.44,184.24a.65.65,0,0,1,.11-.71l11-16.3a.32.32,0,0,0,0-.41l-11-16.3a1,1,0,0,1-.14-.47c0-.37.23-.55.68-.55h8.53a1.07,1.07,0,0,1,.95.55l6.14,9.34c.18.27.34.27.47,0l6.14-9.34a1.07,1.07,0,0,1,1-.55h9.13c.32,0,.53.1.62.31a.73.73,0,0,1-.14.71L311,166.82a.72.72,0,0,0,0,.41l10.91,16.3a.82.82,0,0,1,.14.47c0,.37-.21.55-.62.55h-8.59a1,1,0,0,1-.95-.55l-6.14-9.34c-.14-.27-.27-.27-.41,0L299.18,184a1,1,0,0,1-.95.55h-9.14A.67.67,0,0,1,288.44,184.24Z"/><path class="cls-4" d="M361.41,164a.78.78,0,0,1,.24.58v6.89a.78.78,0,0,1-.24.58.8.8,0,0,1-.58.24H357.9a.31.31,0,0,0-.35.34v11.11a.82.82,0,0,1-.23.58.8.8,0,0,1-.58.24h-8a.82.82,0,0,1-.82-.82V172.62a.3.3,0,0,0-.34-.34H326.66a.8.8,0,0,1-.58-.24.78.78,0,0,1-.23-.58V166a3.24,3.24,0,0,1,.2-1l12.27-27.55a1,1,0,0,1,1-.61h8.52a.74.74,0,0,1,.65.24c.11.15.1.39,0,.71L337,163.34a.28.28,0,0,0,0,.28.2.2,0,0,0,.2.13H347.6a.3.3,0,0,0,.34-.34V155a.82.82,0,0,1,.82-.82h8a.8.8,0,0,1,.58.24.82.82,0,0,1,.23.58v8.45a.31.31,0,0,0,.35.34h2.93A.8.8,0,0,1,361.41,164Z"/><path class="cls-4" d="M399.35,169.28a17.08,17.08,0,0,1-1.09,6.27,13.4,13.4,0,0,1-5.52,6.92,18,18,0,0,1-18.38.07,13.56,13.56,0,0,1-5.55-6.79,19.52,19.52,0,0,1-1-3.75v-.13c0-.5.28-.75.82-.75h8.25a.88.88,0,0,1,.89.75,2.28,2.28,0,0,0,.2.68,4.42,4.42,0,0,1,.21.48,5.64,5.64,0,0,0,2,2.72,5.44,5.44,0,0,0,3.21,1,5.6,5.6,0,0,0,3.34-1,6,6,0,0,0,2.11-2.87,7.85,7.85,0,0,0,.69-3.54,9.68,9.68,0,0,0-.62-3.55A4.59,4.59,0,0,0,387,163a5.92,5.92,0,0,0-3.34-.95,7.32,7.32,0,0,0-3.54.88,4.53,4.53,0,0,0-2.19,2.32.84.84,0,0,1-.88.68h-8.39a.78.78,0,0,1-.58-.23.8.8,0,0,1-.24-.58V137.63a.76.76,0,0,1,.24-.57.78.78,0,0,1,.58-.24h28.16a.78.78,0,0,1,.58.24.76.76,0,0,1,.24.57v6.62a.82.82,0,0,1-.82.82h-19a.3.3,0,0,0-.34.34l-.07,10.09c0,.32.13.39.41.21a12.78,12.78,0,0,1,7.09-2,14.56,14.56,0,0,1,8.35,2.42,13,13,0,0,1,5.08,6.65A22.12,22.12,0,0,1,399.35,169.28Z"/><path class="cls-4" d="M409.1,181.11q-4.35-4.2-4.36-11.43v-18c0-4.72,1.46-8.48,4.36-11.25s6.87-4.16,11.87-4.16,9,1.39,11.9,4.16,4.4,6.53,4.4,11.25v18q0,7.23-4.4,11.43T421,185.3Q413.47,185.3,409.1,181.11Zm16.75-5.94a6.93,6.93,0,0,0,1.8-5V151.41a6.93,6.93,0,0,0-1.8-5,6.47,6.47,0,0,0-4.88-1.88,6.39,6.39,0,0,0-4.81,1.88,6.93,6.93,0,0,0-1.8,5v18.75a6.93,6.93,0,0,0,1.8,5,6.39,6.39,0,0,0,4.81,1.88A6.47,6.47,0,0,0,425.85,175.17Z"/></g><g class="cls-3"><path class="cls-4" d="M101.42,414.82h8.25a.78.78,0,0,1,.58.24.76.76,0,0,1,.24.57v46.1a.82.82,0,0,1-.82.82h-8a.8.8,0,0,1-.58-.24.78.78,0,0,1-.23-.58V424.36a.4.4,0,0,0-.14-.27.23.23,0,0,0-.27-.07l-6.75,1.84-.28.07c-.41,0-.61-.25-.61-.75l-.2-5.86a1,1,0,0,1,.61-1L100.4,415A2,2,0,0,1,101.42,414.82Z"/><path class="cls-4" d="M121.81,459.11q-4.36-4.2-4.36-11.43v-18c0-4.72,1.45-8.48,4.36-11.25s6.86-4.16,11.86-4.16,9,1.39,11.9,4.16S150,425,150,429.68v18q0,7.23-4.4,11.43t-11.9,4.19Q126.17,463.3,121.81,459.11Zm16.74-5.94a6.94,6.94,0,0,0,1.81-5V429.41a6.94,6.94,0,0,0-1.81-5,6.46,6.46,0,0,0-4.88-1.88,6.35,6.35,0,0,0-4.8,1.88,6.89,6.89,0,0,0-1.81,5v18.75a6.89,6.89,0,0,0,1.81,5,6.35,6.35,0,0,0,4.8,1.88A6.46,6.46,0,0,0,138.55,453.17Z"/><path class="cls-4" d="M203.91,430.16q3,3.21,3,9v22.57a.82.82,0,0,1-.82.82h-8a.8.8,0,0,1-.58-.24.78.78,0,0,1-.23-.58V441.27a6.47,6.47,0,0,0-1.44-4.43,4.8,4.8,0,0,0-3.82-1.63,5,5,0,0,0-3.88,1.63,6.22,6.22,0,0,0-1.5,4.37v20.52a.82.82,0,0,1-.82.82h-7.91a.82.82,0,0,1-.82-.82V441.27a6.32,6.32,0,0,0-1.5-4.39,5,5,0,0,0-3.89-1.67,5.3,5.3,0,0,0-3.64,1.29,5.47,5.47,0,0,0-1.74,3.62v21.61a.82.82,0,0,1-.82.82h-8a.82.82,0,0,1-.82-.82V428.32a.82.82,0,0,1,.82-.82h8a.82.82,0,0,1,.82.82V431a.27.27,0,0,0,.13.27c.09.05.18,0,.28-.14q2.79-4.16,8.66-4.15a11.92,11.92,0,0,1,6,1.43,9.56,9.56,0,0,1,3.92,4.09q.21.4.48,0a9.77,9.77,0,0,1,4.06-4.16,12,12,0,0,1,5.76-1.36C199.14,427,201.91,428,203.91,430.16Z"/><path class="cls-4" d="M260.85,430.16q3,3.21,3,9v22.57a.82.82,0,0,1-.82.82h-8a.82.82,0,0,1-.82-.82V441.27a6.47,6.47,0,0,0-1.43-4.43,4.82,4.82,0,0,0-3.82-1.63,5,5,0,0,0-3.88,1.63,6.22,6.22,0,0,0-1.5,4.37v20.52a.78.78,0,0,1-.24.58.8.8,0,0,1-.58.24h-7.91a.82.82,0,0,1-.82-.82V441.27a6.32,6.32,0,0,0-1.5-4.39,5,5,0,0,0-3.89-1.67A5.34,5.34,0,0,0,225,436.5a5.56,5.56,0,0,0-1.74,3.62v21.61a.82.82,0,0,1-.23.58.8.8,0,0,1-.58.24h-8a.82.82,0,0,1-.82-.82V428.32a.82.82,0,0,1,.82-.82h8a.8.8,0,0,1,.58.24.82.82,0,0,1,.23.58V431a.27.27,0,0,0,.14.27c.09.05.18,0,.27-.14q2.81-4.16,8.66-4.15a11.94,11.94,0,0,1,6,1.43,9.56,9.56,0,0,1,3.92,4.09q.21.4.48,0a9.77,9.77,0,0,1,4.06-4.16,12,12,0,0,1,5.76-1.36C256.07,427,258.85,428,260.85,430.16Z"/></g><g class="cls-3"><g class="cls-3"><path class="cls-4" d="M262.21,216.47v2.05a.28.28,0,0,1-.32.32h-6.14c-.09,0-.13,0-.13.13v19.26a.29.29,0,0,1-.32.32h-2.43a.29.29,0,0,1-.32-.32V219c0-.09,0-.13-.13-.13h-5.85a.28.28,0,0,1-.32-.32v-2.05a.28.28,0,0,1,.32-.32h15.32A.28.28,0,0,1,262.21,216.47Z"/></g><g class="cls-3"><path class="cls-4" d="M274.29,222.69a5.23,5.23,0,0,1,2.24,1.92,5.16,5.16,0,0,1,.78,2.8v10.82a.28.28,0,0,1-.32.32h-2.43a.29.29,0,0,1-.32-.32v-1.15c0-.11-.05-.13-.16-.07a5.48,5.48,0,0,1-2,1.33,7.34,7.34,0,0,1-2.67.47,6.21,6.21,0,0,1-3.92-1.2,4.29,4.29,0,0,1-1.55-3.64,4.8,4.8,0,0,1,1.74-3.92,7.51,7.51,0,0,1,4.88-1.42h3.58c.09,0,.13,0,.13-.13v-.86a2.9,2.9,0,0,0-.81-2.19,3.44,3.44,0,0,0-2.48-.79,4.14,4.14,0,0,0-2.2.53,2.2,2.2,0,0,0-1,1.42.33.33,0,0,1-.38.29l-2.59-.35c-.22,0-.31-.13-.29-.26a4.34,4.34,0,0,1,2-3.08,7.64,7.64,0,0,1,4.41-1.2A8,8,0,0,1,274.29,222.69ZM273,235.32a2.69,2.69,0,0,0,1.25-2.27v-1.89c0-.09,0-.13-.13-.13h-3a5.41,5.41,0,0,0-3,.74,2.31,2.31,0,0,0-1.12,2,2.07,2.07,0,0,0,.85,1.8,3.74,3.74,0,0,0,2.22.6A4.88,4.88,0,0,0,273,235.32Z"/><path class="cls-4" d="M302.24,223.49a5.58,5.58,0,0,1,1.41,4v10.69a.29.29,0,0,1-.32.32h-2.4a.29.29,0,0,1-.32-.32v-10a3.57,3.57,0,0,0-.88-2.54,3.07,3.07,0,0,0-2.35-.95,3.25,3.25,0,0,0-2.4.93,3.37,3.37,0,0,0-.93,2.5v10.11a.29.29,0,0,1-.32.32h-2.4a.29.29,0,0,1-.32-.32v-10a3.57,3.57,0,0,0-.88-2.54,3.41,3.41,0,0,0-4.7,0,3.47,3.47,0,0,0-.88,2.5v10.11a.29.29,0,0,1-.32.32h-2.44a.29.29,0,0,1-.32-.32V222.58a.29.29,0,0,1,.32-.32h2.44a.29.29,0,0,1,.32.32v1.09a.12.12,0,0,0,0,.1s.07,0,.12,0A5,5,0,0,1,288.8,222a5.87,5.87,0,0,1,2.79.62,4.41,4.41,0,0,1,1.79,1.84c.06.09.13.09.19,0a4.76,4.76,0,0,1,2-1.85,6.32,6.32,0,0,1,2.8-.61A5.1,5.1,0,0,1,302.24,223.49Z"/><path class="cls-4" d="M317.27,222.69a5.29,5.29,0,0,1,2.24,1.92,5.16,5.16,0,0,1,.78,2.8v10.82a.29.29,0,0,1-.32.32h-2.43a.28.28,0,0,1-.32-.32v-1.15c0-.11-.06-.13-.16-.07a5.56,5.56,0,0,1-2,1.33,7.39,7.39,0,0,1-2.68.47,6.23,6.23,0,0,1-3.92-1.2,4.32,4.32,0,0,1-1.55-3.64,4.78,4.78,0,0,1,1.75-3.92,7.49,7.49,0,0,1,4.88-1.42h3.58a.12.12,0,0,0,.13-.13v-.86a2.87,2.87,0,0,0-.82-2.19,3.42,3.42,0,0,0-2.48-.79,4.1,4.1,0,0,0-2.19.53,2.17,2.17,0,0,0-1,1.42.33.33,0,0,1-.38.29l-2.6-.35c-.21,0-.31-.13-.28-.26a4.36,4.36,0,0,1,2-3.08,7.69,7.69,0,0,1,4.42-1.2A8.07,8.07,0,0,1,317.27,222.69ZM316,235.32a2.71,2.71,0,0,0,1.25-2.27v-1.89a.12.12,0,0,0-.13-.13h-3a5.43,5.43,0,0,0-3,.74,2.33,2.33,0,0,0-1.12,2,2.1,2.1,0,0,0,.85,1.8,3.79,3.79,0,0,0,2.23.6A4.88,4.88,0,0,0,316,235.32Z"/><path class="cls-4" d="M335.87,223.56a5.49,5.49,0,0,1,1.54,4.11v10.56a.29.29,0,0,1-.32.32h-2.43a.28.28,0,0,1-.32-.32v-9.95a3.62,3.62,0,0,0-.93-2.59,3.19,3.19,0,0,0-2.46-1,3.26,3.26,0,0,0-2.47,1,3.52,3.52,0,0,0-1,2.56v10a.29.29,0,0,1-.32.32h-2.43a.29.29,0,0,1-.32-.32V222.58a.29.29,0,0,1,.32-.32h2.43a.29.29,0,0,1,.32.32v1.15a.11.11,0,0,0,.05.1s.06,0,.08,0a4.85,4.85,0,0,1,4.06-1.76A5.62,5.62,0,0,1,335.87,223.56Zm-3.93-4.15a4.92,4.92,0,0,1-1-.48c-.41-.21-.71-.36-.92-.44a1.57,1.57,0,0,0-.65-.13,2.24,2.24,0,0,0-1.7.7l-.13.13a.21.21,0,0,1-.17.1.3.3,0,0,1-.21-.1l-.9-.9a.3.3,0,0,1-.06-.44,3.9,3.9,0,0,1,1.31-1.28,3.3,3.3,0,0,1,1.7-.45,3,3,0,0,1,.94.14,5.16,5.16,0,0,1,.75.34l.48.25.47.26a2.55,2.55,0,0,0,.6.27,1.71,1.71,0,0,0,.53.08,2.06,2.06,0,0,0,1.67-.86c.13-.22.27-.24.45-.07l.8.9a.64.64,0,0,1,.11.22.42.42,0,0,1,0,.23,2.84,2.84,0,0,1-1.2,1.25,3.72,3.72,0,0,1-1.78.44A3.05,3.05,0,0,1,331.94,219.41Z"/><path class="cls-4" d="M344.32,237.61a6.32,6.32,0,0,1-2.46-3.35,12.11,12.11,0,0,1-.58-3.9,11.55,11.55,0,0,1,.55-3.84,6.25,6.25,0,0,1,2.46-3.31,7.25,7.25,0,0,1,4.19-1.2,6.82,6.82,0,0,1,4,1.2,6.61,6.61,0,0,1,2.45,3.28,11.59,11.59,0,0,1,.57,3.84,12.33,12.33,0,0,1-.57,3.93,6.34,6.34,0,0,1-2.44,3.35,6.92,6.92,0,0,1-4.06,1.2A7.15,7.15,0,0,1,344.32,237.61Zm6.37-2.18a4,4,0,0,0,1.38-2,11.21,11.21,0,0,0,.35-3,11.85,11.85,0,0,0-.32-3,4,4,0,0,0-1.38-2,3.79,3.79,0,0,0-2.34-.72,3.68,3.68,0,0,0-2.27.72,3.9,3.9,0,0,0-1.37,2,10,10,0,0,0-.36,3,10.35,10.35,0,0,0,.36,3,3.72,3.72,0,0,0,1.36,2,3.84,3.84,0,0,0,2.35.72A3.64,3.64,0,0,0,350.69,235.43Z"/></g><g class="cls-3"><path class="cls-4" d="M206.86,261.89a5.59,5.59,0,0,1,1.41,4.05v10.69a.29.29,0,0,1-.32.32h-2.4a.28.28,0,0,1-.32-.32V266.58a3.61,3.61,0,0,0-.88-2.54,3.07,3.07,0,0,0-2.36-1,3.25,3.25,0,0,0-2.4.93,3.41,3.41,0,0,0-.92,2.5v10.11a.29.29,0,0,1-.32.32H196a.28.28,0,0,1-.32-.32V266.58a3.61,3.61,0,0,0-.88-2.54,3.42,3.42,0,0,0-4.71,0,3.51,3.51,0,0,0-.88,2.5v10.11a.28.28,0,0,1-.32.32h-2.43a.29.29,0,0,1-.32-.32V261a.29.29,0,0,1,.32-.32h2.43a.28.28,0,0,1,.32.32v1.09a.12.12,0,0,0,.05.1s.07,0,.11,0a5,5,0,0,1,4.1-1.69,5.82,5.82,0,0,1,2.78.62A4.3,4.3,0,0,1,198,262.9c.07.09.13.09.2,0a4.76,4.76,0,0,1,2-1.85,6.29,6.29,0,0,1,2.8-.61A5.1,5.1,0,0,1,206.86,261.89Z"/><path class="cls-4" d="M221.88,261.09a5.23,5.23,0,0,1,2.24,1.92,5.16,5.16,0,0,1,.79,2.8v10.82a.29.29,0,0,1-.32.32h-2.44a.29.29,0,0,1-.32-.32v-1.15c0-.11-.05-.13-.16-.07a5.48,5.48,0,0,1-2,1.33,7.34,7.34,0,0,1-2.67.47,6.21,6.21,0,0,1-3.92-1.2,4.29,4.29,0,0,1-1.55-3.64,4.8,4.8,0,0,1,1.74-3.92,7.51,7.51,0,0,1,4.88-1.42h3.59c.08,0,.12,0,.12-.13V266a2.9,2.9,0,0,0-.81-2.19,3.44,3.44,0,0,0-2.48-.79,4.08,4.08,0,0,0-2.19.53,2.14,2.14,0,0,0-1,1.42.35.35,0,0,1-.39.29l-2.59-.35c-.21,0-.31-.13-.29-.26a4.34,4.34,0,0,1,2-3.08,7.64,7.64,0,0,1,4.41-1.2A8,8,0,0,1,221.88,261.09Zm-1.29,12.63a2.7,2.7,0,0,0,1.24-2.27v-1.89c0-.09,0-.13-.12-.13h-3a5.43,5.43,0,0,0-3,.74,2.31,2.31,0,0,0-1.12,2,2.07,2.07,0,0,0,.85,1.8,3.74,3.74,0,0,0,2.22.6A4.93,4.93,0,0,0,220.59,273.72ZM217,258.5a.25.25,0,0,1,0-.27l1.89-3.46a.38.38,0,0,1,.38-.22h2.15a.25.25,0,0,1,.24.11.31.31,0,0,1,0,.27l-2.27,3.46a.47.47,0,0,1-.39.22h-1.69A.32.32,0,0,1,217,258.5Z"/><path class="cls-4" d="M227.66,276.84a.25.25,0,0,1,0-.27l5.31-7.65a.17.17,0,0,0,0-.19l-5.31-7.68-.06-.16c0-.15.09-.23.28-.23h2.6a.45.45,0,0,1,.38.19l3.74,5.48a.15.15,0,0,0,.1,0,.17.17,0,0,0,.1,0l3.71-5.48a.43.43,0,0,1,.38-.19h2.79a.27.27,0,0,1,.25.11.29.29,0,0,1,0,.28l-5.31,7.68a.31.31,0,0,0,0,.19l5.31,7.65.06.16c0,.15-.09.22-.28.22h-2.63a.41.41,0,0,1-.38-.19L235,271.29c0-.05-.06-.07-.1-.07a.1.1,0,0,0-.1.07l-3.74,5.47a.42.42,0,0,1-.38.19h-2.76A.27.27,0,0,1,227.66,276.84Z"/><path class="cls-4" d="M245.42,257.53a2.18,2.18,0,1,1,1.47.57A2,2,0,0,1,245.42,257.53Zm-.13,19.07V261a.29.29,0,0,1,.32-.32H248a.29.29,0,0,1,.32.32V276.6a.29.29,0,0,1-.32.32h-2.43A.29.29,0,0,1,245.29,276.6Z"/></g><g class="cls-3"><path class="cls-4" d="M274,261.89a5.59,5.59,0,0,1,1.41,4.05v10.69a.29.29,0,0,1-.32.32h-2.4a.28.28,0,0,1-.32-.32V266.58a3.61,3.61,0,0,0-.88-2.54,3.07,3.07,0,0,0-2.36-1,3.25,3.25,0,0,0-2.4.93,3.41,3.41,0,0,0-.92,2.5v10.11a.29.29,0,0,1-.32.32h-2.4a.28.28,0,0,1-.32-.32V266.58a3.61,3.61,0,0,0-.88-2.54,3.42,3.42,0,0,0-4.71,0,3.47,3.47,0,0,0-.88,2.5v10.11a.28.28,0,0,1-.32.32h-2.43a.29.29,0,0,1-.32-.32V261a.29.29,0,0,1,.32-.32h2.43a.28.28,0,0,1,.32.32v1.09a.12.12,0,0,0,.05.1s.07,0,.11,0a5,5,0,0,1,4.1-1.69,5.82,5.82,0,0,1,2.78.62,4.3,4.3,0,0,1,1.79,1.84c.07.09.13.09.2,0a4.7,4.7,0,0,1,2-1.85,6.29,6.29,0,0,1,2.8-.61A5.1,5.1,0,0,1,274,261.89Z"/></g><g class="cls-3"><path class="cls-4" d="M282,276a6.28,6.28,0,0,1-2.47-3.35,12.4,12.4,0,0,1-.57-3.9,11.84,11.84,0,0,1,.54-3.84,6.26,6.26,0,0,1,2.47-3.31,7.25,7.25,0,0,1,4.19-1.2,6.81,6.81,0,0,1,4,1.2,6.56,6.56,0,0,1,2.45,3.28,11.32,11.32,0,0,1,.58,3.84,12,12,0,0,1-.58,3.93,6.37,6.37,0,0,1-2.43,3.35,6.94,6.94,0,0,1-4.06,1.2A7.15,7.15,0,0,1,282,276Zm6.37-2.18a4,4,0,0,0,1.37-2,10.77,10.77,0,0,0,.35-3,11.4,11.4,0,0,0-.32-3,3.9,3.9,0,0,0-1.37-2,3.79,3.79,0,0,0-2.34-.72,3.68,3.68,0,0,0-2.27.72,4,4,0,0,0-1.38,2,10.42,10.42,0,0,0-.35,3,10.75,10.75,0,0,0,.35,3,3.78,3.78,0,0,0,1.36,2,3.87,3.87,0,0,0,2.36.72A3.64,3.64,0,0,0,288.33,273.83Z"/><path class="cls-4" d="M314,254.55h2.43a.28.28,0,0,1,.32.32v21.76a.28.28,0,0,1-.32.32H314a.29.29,0,0,1-.32-.32v-1.06a.09.09,0,0,0-.05-.09s-.07,0-.11,0a5.09,5.09,0,0,1-1.66,1.25,4.86,4.86,0,0,1-2.08.45,6.22,6.22,0,0,1-3.83-1.14,6.5,6.5,0,0,1-2.22-3.22,12,12,0,0,1-.61-4.09,13,13,0,0,1,.51-3.87,6.57,6.57,0,0,1,2.21-3.3,6.28,6.28,0,0,1,3.94-1.18,5,5,0,0,1,2.06.43,4.87,4.87,0,0,1,1.68,1.23s.08.05.11,0a.09.09,0,0,0,.05-.09v-7.14A.29.29,0,0,1,314,254.55Zm-.38,14.24a8.5,8.5,0,0,0-.8-4.1,3,3,0,0,0-2.72-1.63,3.1,3.1,0,0,0-2.85,1.54,7.75,7.75,0,0,0-1,4.22,8.51,8.51,0,0,0,.79,4,3.2,3.2,0,0,0,3,1.76,3.06,3.06,0,0,0,2.81-1.73A8.62,8.62,0,0,0,313.64,268.79Z"/><path class="cls-4" d="M334.57,269.72a.29.29,0,0,1-.32.32H324c-.09,0-.13,0-.13.13a5.46,5.46,0,0,0,.19,1.66,3.44,3.44,0,0,0,1.43,2,4.72,4.72,0,0,0,2.7.72,4.12,4.12,0,0,0,3.65-1.95c.1-.22.24-.25.41-.1l1.83,1.22a.29.29,0,0,1,.09.41,6.2,6.2,0,0,1-2.54,2.28,8.22,8.22,0,0,1-3.73.83,7.05,7.05,0,0,1-3.93-1,6.18,6.18,0,0,1-2.4-2.91,12,12,0,0,1-.77-4.57,13.9,13.9,0,0,1,.35-3.56,6.08,6.08,0,0,1,2.3-3.48,6.83,6.83,0,0,1,4.2-1.28,6.56,6.56,0,0,1,4.83,1.61,7.85,7.85,0,0,1,2,4.75A27.07,27.07,0,0,1,334.57,269.72Zm-9.16-6a3.4,3.4,0,0,0-1.21,1.84,7.34,7.34,0,0,0-.29,1.79c0,.09,0,.13.13.13h7.33c.08,0,.12,0,.12-.13a8.87,8.87,0,0,0-.19-1.57,3.85,3.85,0,0,0-5.89-2.06Z"/></g><g class="cls-3"><path class="cls-4" d="M347.14,275.94a6.57,6.57,0,0,1-2.49-3.41,14.45,14.45,0,0,1,0-7.61,6.24,6.24,0,0,1,2.48-3.35,7.4,7.4,0,0,1,4.27-1.23,7.64,7.64,0,0,1,4.35,1.25,6,6,0,0,1,2.47,3.14,6.2,6.2,0,0,1,.22,1v.06a.37.37,0,0,1-.35.39l-2.88.41h-.07a.37.37,0,0,1-.38-.32.85.85,0,0,0,0-.25l-.13-.45a2.75,2.75,0,0,0-1.15-1.47,3.58,3.58,0,0,0-2.05-.58,3.34,3.34,0,0,0-2.06.63,2.94,2.94,0,0,0-1.14,1.71,10.06,10.06,0,0,0-.32,2.85,11.47,11.47,0,0,0,.29,2.84,3.32,3.32,0,0,0,1.15,1.78,3.24,3.24,0,0,0,2.08.66,3.53,3.53,0,0,0,2.1-.63,2.79,2.79,0,0,0,1.13-1.68.35.35,0,0,0,0-.16.13.13,0,0,0,0-.09c.06-.26.21-.37.44-.32l2.88.44a.59.59,0,0,1,.28.15.33.33,0,0,1,.08.3c-.07.34-.12.59-.16.74a5.74,5.74,0,0,1-2.47,3.25,7.85,7.85,0,0,1-4.35,1.2A7.18,7.18,0,0,1,347.14,275.94Z"/></g><g class="cls-3"><path class="cls-4" d="M364,275.93a6.81,6.81,0,0,1-2.54-3.56,12.1,12.1,0,0,1-.55-3.64,11.7,11.7,0,0,1,.52-3.65,6.52,6.52,0,0,1,2.56-3.49,7.56,7.56,0,0,1,4.38-1.25,7.17,7.17,0,0,1,4.21,1.25,6.65,6.65,0,0,1,2.51,3.46,10.45,10.45,0,0,1,.58,3.64,11.56,11.56,0,0,1-.55,3.65,6.82,6.82,0,0,1-2.53,3.57,7.07,7.07,0,0,1-4.25,1.3A7.35,7.35,0,0,1,364,275.93Zm6.37-2.6a3.66,3.66,0,0,0,1.23-1.88,9.61,9.61,0,0,0,.32-2.69,9,9,0,0,0-.32-2.69,3.48,3.48,0,0,0-1.21-1.87,3.39,3.39,0,0,0-2.12-.66,3.24,3.24,0,0,0-2,.66,3.6,3.6,0,0,0-1.25,1.87,11.47,11.47,0,0,0,0,5.38,3.35,3.35,0,0,0,3.36,2.56A3.17,3.17,0,0,0,370.39,273.33Z"/></g><g class="cls-3"><path class="cls-4" d="M388.61,260.82a.39.39,0,0,1,.19.48l-.54,2.88c0,.26-.17.33-.45.23a3.44,3.44,0,0,0-1.12-.16,5.14,5.14,0,0,0-.64,0,3.34,3.34,0,0,0-2.24.94,3.06,3.06,0,0,0-.89,2.29v9.06a.37.37,0,0,1-.12.27.37.37,0,0,1-.27.11h-2.94a.37.37,0,0,1-.27-.11.37.37,0,0,1-.12-.27V261a.37.37,0,0,1,.12-.27.37.37,0,0,1,.27-.11h2.94a.37.37,0,0,1,.27.11.37.37,0,0,1,.12.27v1.44c0,.09,0,.14,0,.15s.07,0,.12-.08a4.21,4.21,0,0,1,3.74-2.08A3.67,3.67,0,0,1,388.61,260.82Z"/></g><g class="cls-3"><path class="cls-4" d="M400.08,263.49a.34.34,0,0,1-.27.12h-3.26a.14.14,0,0,0-.16.16v7.71a2.42,2.42,0,0,0,.53,1.76,2.26,2.26,0,0,0,1.68.54h1a.4.4,0,0,1,.27.11.41.41,0,0,1,.11.28v2.4a.39.39,0,0,1-.38.41l-1.67,0a6.63,6.63,0,0,1-3.77-.86c-.84-.58-1.26-1.66-1.28-3.26v-9.12a.14.14,0,0,0-.16-.16h-1.83a.36.36,0,0,1-.27-.12.33.33,0,0,1-.11-.27V261a.36.36,0,0,1,.11-.27.39.39,0,0,1,.27-.11h1.83a.15.15,0,0,0,.16-.16v-3.75a.36.36,0,0,1,.11-.27.37.37,0,0,1,.27-.11H396a.41.41,0,0,1,.28.11.4.4,0,0,1,.11.27v3.75a.14.14,0,0,0,.16.16h3.26a.37.37,0,0,1,.27.11.37.37,0,0,1,.12.27v2.24A.34.34,0,0,1,400.08,263.49Z"/></g><g class="cls-3"><path class="cls-4" d="M417.09,268.73l0,1a.34.34,0,0,1-.38.38h-10a.15.15,0,0,0-.16.16,4.6,4.6,0,0,0,.29,1.44q.76,2.31,3.74,2.34a4,4,0,0,0,3.46-1.79.38.38,0,0,1,.32-.2.3.3,0,0,1,.22.1l2,1.63a.34.34,0,0,1,.09.51,6.5,6.5,0,0,1-2.64,2.18,8.57,8.57,0,0,1-3.66.77,7.66,7.66,0,0,1-4.24-1.12,6.43,6.43,0,0,1-2.54-3.14,12.57,12.57,0,0,1-.74-4.8,10,10,0,0,1,.38-3,6.44,6.44,0,0,1,2.42-3.53,7,7,0,0,1,4.27-1.3q6.3,0,7.11,6.59A12.34,12.34,0,0,1,417.09,268.73Zm-9.2-4.6a3.17,3.17,0,0,0-1.1,1.65,5.83,5.83,0,0,0-.26,1.41c0,.11,0,.16.13.16h6.5a.14.14,0,0,0,.16-.16,6.39,6.39,0,0,0-.19-1.22,3.16,3.16,0,0,0-1.14-1.79,3.5,3.5,0,0,0-2.13-.64A3.22,3.22,0,0,0,407.89,264.13Z"/></g></g><polyline class="cls-1" points="90.4 496.88 265.9 496.88 265.9 560.88"/><polyline class="cls-1" points="519.4 496.88 343.9 496.88 343.9 560.88"/><g class="cls-3"><g class="cls-3"><path class="cls-4" d="M363.75,401.53a5.85,5.85,0,0,1,2.31,2.29,6.91,6.91,0,0,1,.81,3.39,6.64,6.64,0,0,1-.83,3.36,5.71,5.71,0,0,1-2.35,2.24,7.36,7.36,0,0,1-3.51.8h-5.63a.12.12,0,0,0-.13.13v9.09a.28.28,0,0,1-.32.32h-2.43a.29.29,0,0,1-.32-.32V401a.29.29,0,0,1,.32-.32h8.64A7.08,7.08,0,0,1,363.75,401.53Zm-1,8.53a3.74,3.74,0,0,0,1.07-2.78,3.69,3.69,0,0,0-3.9-3.91h-5.35a.12.12,0,0,0-.13.13V411a.12.12,0,0,0,.13.13h5.35A3.85,3.85,0,0,0,362.73,410.06Z"/></g><g class="cls-3"><path class="cls-4" d="M379.13,407.12c.15.06.2.19.16.38l-.51,2.4c0,.19-.15.26-.38.19a3.57,3.57,0,0,0-1.28-.22l-.45,0a3.63,3.63,0,0,0-2.48,1,3.45,3.45,0,0,0-1,2.55v9.34a.28.28,0,0,1-.32.32h-2.43a.29.29,0,0,1-.32-.32V407.18a.29.29,0,0,1,.32-.32h2.43a.28.28,0,0,1,.32.32v1.7c0,.06,0,.1.05.11s.06,0,.08-.05a4.47,4.47,0,0,1,3.94-2.24A4,4,0,0,1,379.13,407.12Z"/></g><g class="cls-3"><path class="cls-4" d="M384.28,422.21a6.28,6.28,0,0,1-2.47-3.35,12.4,12.4,0,0,1-.57-3.9,11.84,11.84,0,0,1,.54-3.84,6.26,6.26,0,0,1,2.47-3.31,7.25,7.25,0,0,1,4.19-1.2,6.81,6.81,0,0,1,4,1.2,6.56,6.56,0,0,1,2.45,3.28,11.32,11.32,0,0,1,.58,3.84,12,12,0,0,1-.58,3.93,6.37,6.37,0,0,1-2.43,3.35,6.94,6.94,0,0,1-4.06,1.2A7.15,7.15,0,0,1,384.28,422.21Zm6.37-2.18a4,4,0,0,0,1.37-2,10.77,10.77,0,0,0,.35-3,11.4,11.4,0,0,0-.32-3,3.9,3.9,0,0,0-1.37-2,3.79,3.79,0,0,0-2.34-.72,3.68,3.68,0,0,0-2.27.72,4,4,0,0,0-1.38,2,10.42,10.42,0,0,0-.35,3,10.75,10.75,0,0,0,.35,3,3.78,3.78,0,0,0,1.36,2,3.87,3.87,0,0,0,2.36.72A3.64,3.64,0,0,0,390.65,420Z"/></g><g class="cls-3"><path class="cls-4" d="M404.21,404.05a3.42,3.42,0,0,0-.57,2.3v.38c0,.09,0,.13.12.13h3.36a.28.28,0,0,1,.32.32v2.18a.28.28,0,0,1-.32.32h-3.36c-.08,0-.12,0-.12.13v13a.29.29,0,0,1-.32.32h-2.44a.29.29,0,0,1-.32-.32v-13c0-.09,0-.13-.12-.13h-2.15a.29.29,0,0,1-.32-.32v-2.18a.29.29,0,0,1,.32-.32h2.15c.08,0,.12,0,.12-.13v-.57a8.56,8.56,0,0,1,.5-3.27,3,3,0,0,1,1.68-1.64,8.9,8.9,0,0,1,3.33-.5h1.09a.29.29,0,0,1,.32.32v2.05a.29.29,0,0,1-.32.32h-.77A3,3,0,0,0,404.21,404.05Z"/><path class="cls-4" d="M421,406.86h2.4a.29.29,0,0,1,.32.32v15.65a.29.29,0,0,1-.32.32H421a.29.29,0,0,1-.32-.32v-1.18s0-.07-.05-.08a.11.11,0,0,0-.11,0,4.53,4.53,0,0,1-3.94,1.76,6.92,6.92,0,0,1-2.89-.6,5.06,5.06,0,0,1-2.13-1.8,5,5,0,0,1-.8-2.88V407.18a.29.29,0,0,1,.32-.32h2.4a.29.29,0,0,1,.32.32v9.95a3.73,3.73,0,0,0,.88,2.63,3.2,3.2,0,0,0,2.48,1,3.43,3.43,0,0,0,2.56-1,3.56,3.56,0,0,0,1-2.61v-9.95A.29.29,0,0,1,421,406.86Z"/></g><g class="cls-3"><path class="cls-4" d="M439.6,408.16a5.49,5.49,0,0,1,1.54,4.11v10.56a.29.29,0,0,1-.32.32h-2.43a.28.28,0,0,1-.32-.32v-9.95a3.62,3.62,0,0,0-.93-2.59,3.22,3.22,0,0,0-2.46-1,3.29,3.29,0,0,0-2.47,1,3.52,3.52,0,0,0-1,2.56v10a.29.29,0,0,1-.32.32H428.5a.29.29,0,0,1-.32-.32V407.18a.29.29,0,0,1,.32-.32h2.43a.29.29,0,0,1,.32.32v1.15a.11.11,0,0,0,.05.1s.06,0,.08,0a4.85,4.85,0,0,1,4.06-1.76A5.66,5.66,0,0,1,439.6,408.16Z"/></g><g class="cls-3"><path class="cls-4" d="M455.76,400.75h2.43a.28.28,0,0,1,.32.32v21.76a.28.28,0,0,1-.32.32h-2.43a.29.29,0,0,1-.32-.32v-1.06a.09.09,0,0,0-.05-.09s-.07,0-.11,0a5.09,5.09,0,0,1-1.66,1.25,4.86,4.86,0,0,1-2.08.45,6.22,6.22,0,0,1-3.83-1.14,6.5,6.5,0,0,1-2.22-3.22,12,12,0,0,1-.61-4.09,13,13,0,0,1,.51-3.87,6.57,6.57,0,0,1,2.21-3.3,6.28,6.28,0,0,1,3.94-1.18,5,5,0,0,1,2.06.43,4.87,4.87,0,0,1,1.68,1.23s.08.05.11,0a.09.09,0,0,0,.05-.09v-7.14A.29.29,0,0,1,455.76,400.75ZM455.38,415a8.5,8.5,0,0,0-.8-4.1,3,3,0,0,0-2.72-1.63A3.1,3.1,0,0,0,449,410.8a7.75,7.75,0,0,0-1,4.22,8.36,8.36,0,0,0,.8,4,3.17,3.17,0,0,0,3,1.76,3.06,3.06,0,0,0,2.81-1.73A8.62,8.62,0,0,0,455.38,415Z"/><path class="cls-4" d="M463.41,403.73a2.17,2.17,0,0,1,0-3,2,2,0,1,1,0,3Zm-.13,19.07V407.18a.29.29,0,0,1,.32-.32H466a.28.28,0,0,1,.32.32V422.8a.28.28,0,0,1-.32.32H463.6A.29.29,0,0,1,463.28,422.8Z"/><path class="cls-4" d="M481.62,400.75h2.43a.29.29,0,0,1,.32.32v21.76a.29.29,0,0,1-.32.32h-2.43a.28.28,0,0,1-.32-.32v-1.06a.11.11,0,0,0-.05-.09s-.07,0-.11,0a5.13,5.13,0,0,1-1.67,1.25,4.83,4.83,0,0,1-2.08.45,6.19,6.19,0,0,1-3.82-1.14,6.43,6.43,0,0,1-2.22-3.22,12,12,0,0,1-.61-4.09,13,13,0,0,1,.51-3.87,6.51,6.51,0,0,1,2.21-3.3,6.23,6.23,0,0,1,3.93-1.18,5,5,0,0,1,2.07.43,4.87,4.87,0,0,1,1.68,1.23s.08.05.11,0a.11.11,0,0,0,.05-.09v-7.14A.28.28,0,0,1,481.62,400.75ZM481.23,415a8.39,8.39,0,0,0-.8-4.1,3,3,0,0,0-2.72-1.63,3.07,3.07,0,0,0-2.84,1.54,7.67,7.67,0,0,0-1,4.22,8.48,8.48,0,0,0,.8,4,3.18,3.18,0,0,0,3,1.76A3.06,3.06,0,0,0,480.5,419,8.64,8.64,0,0,0,481.23,415Z"/><path class="cls-4" d="M498.24,407.29a5.23,5.23,0,0,1,2.24,1.92,5.16,5.16,0,0,1,.79,2.8v10.82a.29.29,0,0,1-.32.32h-2.44a.29.29,0,0,1-.32-.32v-1.15c0-.11-.05-.13-.16-.07a5.48,5.48,0,0,1-2,1.33,7.34,7.34,0,0,1-2.67.47,6.21,6.21,0,0,1-3.92-1.2,4.29,4.29,0,0,1-1.55-3.64,4.8,4.8,0,0,1,1.74-3.92,7.56,7.56,0,0,1,4.88-1.42h3.59c.08,0,.12,0,.12-.13v-.86a2.9,2.9,0,0,0-.81-2.19,3.44,3.44,0,0,0-2.48-.79,4.08,4.08,0,0,0-2.19.53,2.14,2.14,0,0,0-1,1.42.35.35,0,0,1-.39.29l-2.59-.35c-.21,0-.31-.13-.29-.26a4.34,4.34,0,0,1,2-3.08,7.64,7.64,0,0,1,4.41-1.2A8,8,0,0,1,498.24,407.29ZM497,419.92a2.7,2.7,0,0,0,1.24-2.27v-1.89c0-.09,0-.13-.12-.13h-3a5.43,5.43,0,0,0-3,.74,2.31,2.31,0,0,0-1.12,2,2.07,2.07,0,0,0,.85,1.8,3.74,3.74,0,0,0,2.22.6A4.93,4.93,0,0,0,497,419.92Z"/><path class="cls-4" d="M515.86,400.75h2.43a.29.29,0,0,1,.32.32v21.76a.29.29,0,0,1-.32.32h-2.43a.28.28,0,0,1-.32-.32v-1.06a.11.11,0,0,0,0-.09s-.07,0-.11,0a5.13,5.13,0,0,1-1.67,1.25,4.83,4.83,0,0,1-2.08.45,6.19,6.19,0,0,1-3.82-1.14,6.51,6.51,0,0,1-2.23-3.22A12.3,12.3,0,0,1,505,415a13,13,0,0,1,.51-3.87,6.51,6.51,0,0,1,2.21-3.3,6.23,6.23,0,0,1,3.93-1.18,5,5,0,0,1,2.07.43,4.87,4.87,0,0,1,1.68,1.23s.08.05.11,0a.11.11,0,0,0,0-.09v-7.14A.28.28,0,0,1,515.86,400.75ZM515.47,415a8.39,8.39,0,0,0-.8-4.1,3,3,0,0,0-2.72-1.63,3.07,3.07,0,0,0-2.84,1.54,7.67,7.67,0,0,0-1,4.22,8.48,8.48,0,0,0,.8,4,3.18,3.18,0,0,0,3,1.76,3.06,3.06,0,0,0,2.82-1.73A8.64,8.64,0,0,0,515.47,415Z"/></g><g class="cls-3"><path class="cls-4" d="M310.91,446.49a5.58,5.58,0,0,1,1.41,4.05v10.69a.29.29,0,0,1-.32.32h-2.4a.28.28,0,0,1-.32-.32V451.18a3.61,3.61,0,0,0-.88-2.54,3.07,3.07,0,0,0-2.36-.95,3.25,3.25,0,0,0-2.4.93,3.41,3.41,0,0,0-.92,2.5v10.11a.29.29,0,0,1-.32.32H300a.28.28,0,0,1-.32-.32V451.18a3.61,3.61,0,0,0-.88-2.54,3.42,3.42,0,0,0-4.71,0,3.47,3.47,0,0,0-.88,2.5v10.11a.29.29,0,0,1-.32.32h-2.43a.29.29,0,0,1-.32-.32V445.58a.29.29,0,0,1,.32-.32h2.43a.29.29,0,0,1,.32.32v1.09a.12.12,0,0,0,.05.1s.07,0,.11,0a5,5,0,0,1,4.1-1.69,5.82,5.82,0,0,1,2.78.62A4.3,4.3,0,0,1,302,447.5c.07.09.13.09.2,0a4.7,4.7,0,0,1,2-1.85,6.29,6.29,0,0,1,2.8-.61A5.1,5.1,0,0,1,310.91,446.49Z"/><path class="cls-4" d="M325.93,445.69a5.23,5.23,0,0,1,2.24,1.92,5.16,5.16,0,0,1,.79,2.8v10.82a.29.29,0,0,1-.32.32H326.2a.29.29,0,0,1-.32-.32v-1.15c0-.11-.05-.13-.16-.07a5.48,5.48,0,0,1-2,1.33,7.34,7.34,0,0,1-2.67.47,6.21,6.21,0,0,1-3.92-1.2,4.29,4.29,0,0,1-1.55-3.64,4.8,4.8,0,0,1,1.74-3.92,7.51,7.51,0,0,1,4.88-1.42h3.59c.08,0,.12,0,.12-.13v-.86a2.9,2.9,0,0,0-.81-2.19,3.44,3.44,0,0,0-2.48-.79,4.08,4.08,0,0,0-2.19.53,2.14,2.14,0,0,0-1,1.42.35.35,0,0,1-.39.29l-2.59-.35c-.21,0-.31-.13-.29-.26a4.34,4.34,0,0,1,2-3.08,7.64,7.64,0,0,1,4.41-1.2A8,8,0,0,1,325.93,445.69Zm-1.29,12.63a2.7,2.7,0,0,0,1.24-2.27v-1.89c0-.09,0-.13-.12-.13h-3a5.43,5.43,0,0,0-3,.74,2.31,2.31,0,0,0-1.12,2,2.07,2.07,0,0,0,.85,1.8,3.74,3.74,0,0,0,2.22.6A4.93,4.93,0,0,0,324.64,458.32ZM321,443.1a.25.25,0,0,1,0-.27l1.89-3.46a.37.37,0,0,1,.38-.22h2.15a.25.25,0,0,1,.24.11.31.31,0,0,1-.05.27L323.36,443a.47.47,0,0,1-.39.22h-1.69A.32.32,0,0,1,321,443.1Z"/><path class="cls-4" d="M331.71,461.44a.27.27,0,0,1,0-.27l5.31-7.65a.17.17,0,0,0,0-.19l-5.31-7.68-.06-.16c0-.15.09-.23.28-.23h2.6a.45.45,0,0,1,.38.19l3.74,5.48a.18.18,0,0,0,.2,0l3.71-5.48a.43.43,0,0,1,.38-.19h2.79a.27.27,0,0,1,.25.11.29.29,0,0,1,0,.28l-5.31,7.68a.31.31,0,0,0,0,.19l5.31,7.65.06.16c0,.15-.09.22-.28.22h-2.63a.41.41,0,0,1-.38-.19L339,455.89c0-.05-.06-.07-.1-.07a.1.1,0,0,0-.1.07l-3.74,5.47a.42.42,0,0,1-.38.19H332A.27.27,0,0,1,331.71,461.44Z"/><path class="cls-4" d="M349.47,442.13a2.18,2.18,0,1,1,1.47.57A2,2,0,0,1,349.47,442.13Zm-.13,19.07V445.58a.29.29,0,0,1,.32-.32h2.43a.29.29,0,0,1,.32.32V461.2a.29.29,0,0,1-.32.32h-2.43A.29.29,0,0,1,349.34,461.2Z"/><path class="cls-4" d="M378,446.49a5.58,5.58,0,0,1,1.41,4.05v10.69a.29.29,0,0,1-.32.32h-2.4a.29.29,0,0,1-.32-.32V451.18a3.57,3.57,0,0,0-.88-2.54,3.07,3.07,0,0,0-2.35-.95,3.25,3.25,0,0,0-2.4.93,3.37,3.37,0,0,0-.93,2.5v10.11a.29.29,0,0,1-.32.32h-2.4a.29.29,0,0,1-.32-.32V451.18a3.57,3.57,0,0,0-.88-2.54,3.41,3.41,0,0,0-4.7,0,3.47,3.47,0,0,0-.88,2.5v10.11a.29.29,0,0,1-.32.32h-2.44a.29.29,0,0,1-.32-.32V445.58a.29.29,0,0,1,.32-.32H360a.29.29,0,0,1,.32.32v1.09a.12.12,0,0,0,0,.1s.07,0,.12,0a5,5,0,0,1,4.09-1.69,5.87,5.87,0,0,1,2.79.62,4.41,4.41,0,0,1,1.79,1.84c.06.09.13.09.19,0a4.76,4.76,0,0,1,2-1.85,6.32,6.32,0,0,1,2.8-.61A5.1,5.1,0,0,1,378,446.49Z"/><path class="cls-4" d="M393,445.69a5.26,5.26,0,0,1,2.23,1.92,5.08,5.08,0,0,1,.79,2.8v10.82a.29.29,0,0,1-.32.32h-2.43a.28.28,0,0,1-.32-.32v-1.15c0-.11-.06-.13-.16-.07a5.6,5.6,0,0,1-2,1.33,7.3,7.3,0,0,1-2.67.47,6.23,6.23,0,0,1-3.92-1.2,4.32,4.32,0,0,1-1.55-3.64,4.8,4.8,0,0,1,1.74-3.92,7.53,7.53,0,0,1,4.88-1.42h3.59a.12.12,0,0,0,.13-.13v-.86a2.9,2.9,0,0,0-.82-2.19,3.42,3.42,0,0,0-2.48-.79,4.08,4.08,0,0,0-2.19.53,2.17,2.17,0,0,0-1,1.42c-.07.22-.19.31-.38.29l-2.6-.35c-.21,0-.31-.13-.29-.26a4.41,4.41,0,0,1,2-3.08,7.67,7.67,0,0,1,4.42-1.2A8.07,8.07,0,0,1,393,445.69Zm-1.3,12.63a2.71,2.71,0,0,0,1.25-2.27v-1.89a.12.12,0,0,0-.13-.13h-3a5.43,5.43,0,0,0-3,.74,2.33,2.33,0,0,0-1.12,2,2.07,2.07,0,0,0,.85,1.8,3.78,3.78,0,0,0,2.22.6A4.89,4.89,0,0,0,391.74,458.32Z"/><path class="cls-4" d="M417.05,439.15h2.43a.28.28,0,0,1,.32.32v21.76a.28.28,0,0,1-.32.32h-2.43a.29.29,0,0,1-.32-.32v-1.06a.11.11,0,0,0-.05-.09s-.07,0-.11,0a5.09,5.09,0,0,1-1.66,1.25,4.86,4.86,0,0,1-2.08.45,6.22,6.22,0,0,1-3.83-1.14,6.5,6.5,0,0,1-2.22-3.22,12,12,0,0,1-.61-4.09,13,13,0,0,1,.51-3.87,6.57,6.57,0,0,1,2.21-3.3,6.28,6.28,0,0,1,3.94-1.18,5,5,0,0,1,2.06.43,4.87,4.87,0,0,1,1.68,1.23s.08.05.11,0a.11.11,0,0,0,.05-.09v-7.14A.29.29,0,0,1,417.05,439.15Zm-.38,14.24a8.5,8.5,0,0,0-.8-4.1,3,3,0,0,0-2.72-1.63,3.1,3.1,0,0,0-2.85,1.54,7.73,7.73,0,0,0-1,4.22,8.51,8.51,0,0,0,.8,4,3.19,3.19,0,0,0,3,1.76,3.06,3.06,0,0,0,2.82-1.73A8.62,8.62,0,0,0,416.67,453.39Z"/><path class="cls-4" d="M437.59,454.32a.28.28,0,0,1-.32.32h-10.2c-.09,0-.13,0-.13.13a5.46,5.46,0,0,0,.19,1.66,3.47,3.47,0,0,0,1.42,2,4.78,4.78,0,0,0,2.71.72,4.12,4.12,0,0,0,3.65-1.95c.1-.22.24-.25.41-.1l1.83,1.22a.29.29,0,0,1,.09.41A6.26,6.26,0,0,1,434.7,461a8.22,8.22,0,0,1-3.73.83,7.11,7.11,0,0,1-3.94-1,6.3,6.3,0,0,1-2.4-2.91,12.18,12.18,0,0,1-.76-4.57,13.41,13.41,0,0,1,.35-3.56,6.08,6.08,0,0,1,2.3-3.48,6.8,6.8,0,0,1,4.19-1.28,6.53,6.53,0,0,1,4.84,1.61,7.85,7.85,0,0,1,1.95,4.75A24.91,24.91,0,0,1,437.59,454.32Zm-9.15-6a3.35,3.35,0,0,0-1.21,1.84,7.34,7.34,0,0,0-.29,1.79c0,.09,0,.13.13.13h7.32c.09,0,.13,0,.13-.13a8.74,8.74,0,0,0-.19-1.57,3.64,3.64,0,0,0-1.26-2,3.68,3.68,0,0,0-2.36-.75A3.63,3.63,0,0,0,428.44,448.35Z"/></g><g class="cls-3"><path class="cls-4" d="M450.23,460.57a6.19,6.19,0,0,1-2.37-3.34,12.79,12.79,0,0,1-.48-3.87,14,14,0,0,1,.48-3.87,6.1,6.1,0,0,1,2.38-3.27,7.1,7.1,0,0,1,4.15-1.21,7.29,7.29,0,0,1,4.19,1.21,5.64,5.64,0,0,1,2.34,3.07,5,5,0,0,1,.25,1.06.31.31,0,0,1-.29.32l-2.4.35h-.06c-.15,0-.26-.09-.32-.29l-.1-.51a3.12,3.12,0,0,0-1.24-1.82,4,4,0,0,0-2.4-.74,3.74,3.74,0,0,0-2.34.74,3.35,3.35,0,0,0-1.25,2,13.06,13.06,0,0,0-.29,3,12.9,12.9,0,0,0,.29,3,3.52,3.52,0,0,0,3.59,2.75,3.92,3.92,0,0,0,2.41-.74,3.14,3.14,0,0,0,1.27-1.92s0,0,0-.08a.08.08,0,0,1,0-.08v-.12a.27.27,0,0,1,.35-.2l2.4.39c.17,0,.26.13.26.25v.13a2.26,2.26,0,0,1-.16.71,5.47,5.47,0,0,1-2.34,3.13,7.43,7.43,0,0,1-4.19,1.19A6.92,6.92,0,0,1,450.23,460.57Z"/></g><g class="cls-3"><path class="cls-4" d="M467.1,460.61a6.28,6.28,0,0,1-2.47-3.35,12.4,12.4,0,0,1-.57-3.9,11.84,11.84,0,0,1,.54-3.84,6.26,6.26,0,0,1,2.47-3.31,7.25,7.25,0,0,1,4.19-1.2,6.81,6.81,0,0,1,4,1.2,6.5,6.5,0,0,1,2.45,3.28,11.32,11.32,0,0,1,.58,3.84,12,12,0,0,1-.58,3.93,6.37,6.37,0,0,1-2.43,3.35,6.94,6.94,0,0,1-4.06,1.2A7.15,7.15,0,0,1,467.1,460.61Zm6.37-2.18a4,4,0,0,0,1.37-2,10.82,10.82,0,0,0,.35-3,11.4,11.4,0,0,0-.32-3,3.9,3.9,0,0,0-1.37-2,3.79,3.79,0,0,0-2.34-.72,3.68,3.68,0,0,0-2.27.72,4,4,0,0,0-1.38,2,10.42,10.42,0,0,0-.35,3,10.75,10.75,0,0,0,.35,3,3.78,3.78,0,0,0,1.36,2,3.87,3.87,0,0,0,2.36.72A3.64,3.64,0,0,0,473.47,458.43Z"/></g><g class="cls-3"><path class="cls-4" d="M491.32,445.52c.15.06.2.19.16.38l-.51,2.4c0,.19-.15.26-.38.19a3.37,3.37,0,0,0-1.28-.22l-.45,0a3.58,3.58,0,0,0-2.48,1,3.45,3.45,0,0,0-1,2.55v9.34a.29.29,0,0,1-.32.32h-2.43a.29.29,0,0,1-.32-.32V445.58a.29.29,0,0,1,.32-.32h2.43a.29.29,0,0,1,.32.32v1.7c0,.06,0,.1.05.11s.06,0,.08-.05a4.47,4.47,0,0,1,3.94-2.24A4,4,0,0,1,491.32,445.52Z"/></g><g class="cls-3"><path class="cls-4" d="M502.26,447.79h-3.45c-.09,0-.13,0-.13.13v8.48a2.17,2.17,0,0,0,2.49,2.53h.93a.28.28,0,0,1,.32.32v2a.29.29,0,0,1-.32.32q-1,.06-1.47.06a6.26,6.26,0,0,1-3.66-.88c-.83-.58-1.24-1.67-1.24-3.24v-9.57c0-.09,0-.13-.12-.13h-2a.29.29,0,0,1-.32-.32v-1.89a.29.29,0,0,1,.32-.32h2c.08,0,.12,0,.12-.13v-3.77a.28.28,0,0,1,.32-.32h2.31a.28.28,0,0,1,.32.32v3.77c0,.09,0,.13.13.13h3.45a.29.29,0,0,1,.32.32v1.89A.29.29,0,0,1,502.26,447.79Z"/></g><g class="cls-3"><path class="cls-4" d="M519.25,454.32a.29.29,0,0,1-.32.32H508.72a.12.12,0,0,0-.13.13,5.41,5.41,0,0,0,.2,1.66,3.43,3.43,0,0,0,1.42,2,4.74,4.74,0,0,0,2.7.72,4.11,4.11,0,0,0,3.65-1.95c.11-.22.25-.25.42-.1l1.82,1.22a.3.3,0,0,1,.1.41,6.29,6.29,0,0,1-2.55,2.28,8.21,8.21,0,0,1-3.72.83,7.11,7.11,0,0,1-3.94-1,6.18,6.18,0,0,1-2.4-2.91,12.17,12.17,0,0,1-.77-4.57,13.85,13.85,0,0,1,.35-3.56,6.14,6.14,0,0,1,2.31-3.48,6.8,6.8,0,0,1,4.19-1.28,6.52,6.52,0,0,1,4.83,1.61,7.73,7.73,0,0,1,1.95,4.75A24.77,24.77,0,0,1,519.25,454.32Zm-9.15-6a3.42,3.42,0,0,0-1.22,1.84,7.86,7.86,0,0,0-.29,1.79.12.12,0,0,0,.13.13h7.33a.12.12,0,0,0,.13-.13,11.11,11.11,0,0,0-.19-1.57,3.71,3.71,0,0,0-1.27-2,3.66,3.66,0,0,0-2.35-.75A3.61,3.61,0,0,0,510.1,448.35Z"/></g></g></svg>