<svg id="Capa_1" data-name="Capa 1" xmlns="http://www.w3.org/2000/svg" viewBox="0 0 480 480"><defs><style>.cls-1{fill:#fff;}.cls-2{fill:#1383c5;}</style></defs><title>Mesa de trabajo 1</title><circle class="cls-1" cx="240" cy="240" r="235"/><path class="cls-2" d="M480,240c0,132.55-107.45,240-240,240S0,372.55,0,240,107.45,0,240,0,480,107.45,480,240ZM240,40C129.54,40,40,129.54,40,240s89.54,200,200,200,200-89.54,200-200S350.46,40,240,40Z"/><rect class="cls-2" x="22.5" y="277.5" width="190" height="23"/><rect class="cls-2" x="40" y="335.5" width="172.5" height="23"/><rect class="cls-2" x="120" y="199" width="80" height="12" transform="translate(191.82 -53.09) rotate(45)"/><rect class="cls-2" x="280" y="199" width="80" height="12" transform="translate(-51.23 286.32) rotate(-45)"/><rect class="cls-2" x="305" y="239" width="100" height="12" transform="translate(-51.31 100.23) rotate(-15)"/><rect class="cls-2" x="75" y="239" width="100" height="12" transform="translate(182.33 514) rotate(-165)"/><rect class="cls-2" x="158.11" y="289.61" width="163.78" height="20" transform="translate(-59.61 539.61) rotate(-90)"/><rect class="cls-2" x="183.5" y="306.5" width="35" height="23" transform="translate(519 117) rotate(90)"/><rect class="cls-2" x="261.5" y="306.5" width="35" height="23" transform="translate(597 39) rotate(90)"/><rect class="cls-2" x="267.5" y="277.5" width="190" height="23"/><rect class="cls-2" x="267.5" y="335.5" width="172.5" height="23"/><polygon class="cls-2" points="310 102.72 170 102.72 210 217.72 270 217.72 310 102.72"/></svg>