<?xml version="1.0" encoding="utf-8"?>
<!-- Generator: Adobe Illustrator 22.0.0, SVG Export Plug-In . SVG Version: 6.00 Build 0)  -->
<svg version="1.1" id="Capa_1" xmlns="http://www.w3.org/2000/svg" xmlns:xlink="http://www.w3.org/1999/xlink" x="0px" y="0px"
	 viewBox="0 0 1920 188.4" style="enable-background:new 0 0 1920 188.4;" xml:space="preserve">
<style type="text/css">
	.st0{fill:#FFFFFF;}
</style>
<g>
	<path class="st0" d="M1743.6,73c1.6,0,3,0,4.3,0c26.6,0,53.3,0,79.8,0c0.3,0,0.7,0,1,0H1743.6C1743.6,72.9,1743.6,73,1743.6,73z"/>
	<path class="st0" d="M1743.8,40.9L1743.8,40.9h45.6c-13.7,0-27.4,0-41.1,0C1747,40.9,1745.5,40.9,1743.8,40.9z"/>
	<path class="st0" d="M85.1,40.9h72.7c-23.8,0-47.6,0-71.4,0C86,40.9,85.6,40.9,85.1,40.9z"/>
	<path class="st0" d="M0,73.7c0.6,1.2,1.1,2.4,1.7,3.6c4.3,8.6,11.1,15.3,18.5,21.2c3.3,2.7,7,5.2,10.7,7.2
		c12.5,6.7,26.3,9,40.2,9.1c29.2,0.3,58.4-0.1,87.7,0.2c12.3,0.2,17.7,8.6,16.2,18c-1.4,9-9.9,13.7-18,13.7c-45.2,0-90.5,0-135.6,0
		c-0.9,0-1.8,0-2.7-0.1c-5.9-0.3-11.7-0.7-17.7-1c0,14.3,0,27.8,0,41.6c1.8,0,3.3,0,4.9,0c55.5,0,111,0,166.4-0.1
		c5.1,0,10.3-0.6,15.2-1.8c15-3.6,28-10.1,38.4-22.2c13.2-15.4,15.5-39.3,6.4-56.6c-7.7-14.5-20.3-23.3-35.3-28.8
		c-11-4-22.8-4.8-34.4-4.9c-5.8-0.1-11.5-0.1-17.3-0.1H0C0,73.2,0,73.5,0,73.7z"/>
	<path class="st0" d="M1063.2,144.9c-35.6,0-70.5,0-106.3,0c11.4-24.3,22.6-48.1,33.9-72.1h-66.9c-4.4,9.4-8.8,18.8-13.1,28.2
		c-10.9,23.9-21.7,47.6-32.5,71.5c-2.1,4.8-4.1,9.6-6.4,14.8c92.6,0,184.3,0,277.1,0c-17.7-38.5-35.2-76.6-52.5-114.4h-67
		C1040.7,96.9,1051.8,120.7,1063.2,144.9z"/>
	<path class="st0" d="M1435.9,130.5c0,12.6,4.6,23.6,13,33c14.1,15.9,32.7,22.7,53.3,23c51.5,0.6,103.2,0.2,154.7,0.2
		c1.3,0,2.7,0,3.9,0c0-14,0-27.6,0-41.3c-1.7,0-3.2,0-4.9,0c-45.9,0-91.7,0-137.6,0c-9.8,0-18.4-3.4-21.6-13.3
		c-1.7-5.1-0.9-10.9-1.3-17.2c55.7,0,110.6,0,165.4,0c0-14.1,0-27.8,0-41.9h-225.1C1435.9,92.1,1435.8,111.3,1435.9,130.5z"/>
	<path class="st0" d="M1909.5,72.9h-80.6c-0.3,0-0.7,0-1,0c-26.6-0.1-53.3,0-79.8,0c-1.4,0-2.7,0-4.3,0l0,0h-58.8
		c0,38.3,0,76.3,0,114.4c20,0,39.7,0,59.2,0c0-24.2,0-48.1,0-72.1c0.6-0.1,0.9-0.3,1.3-0.3c33.8,0,67.5,0,101.3,0
		c1.1,0,2.3,0.3,3.2,0.8c6.2,3,7.7,8.6,7.7,14.9c0,16.1,0,32.2,0,48.3c0,2.7,0,5.4,0,8.3c20.8,0,41.3,0,62.4,0c0-1.7,0-3.1,0-4.5
		c0-16.4-0.1-32.7,0-49.1c0.1-7.8-0.6-15.6-4.1-22.3c-4.3-8.4-8.4-17.8-19.5-19.6C1902,86.2,1907.9,80.7,1909.5,72.9z"/>
	<path class="st0" d="M1215.4,95.5c22.1,6.1,44.2,12.3,66.3,18.5c16.3,4.5,32.5,9,48.7,13.5c6.5,1.8,12.8,3.8,19.2,6.1
		c3.3,1.2,3.9,4.1,3,7.2c-1.2,4.2-3,5.4-8.7,5.4c-54.1,0-108,0-162.1,0c-1.5,0-3,0-4.6,0c0,14.5,0,28.4,0,42.9c1.9,0,3.5,0,5.1,0
		c59.6,0,119.3,0,178.9,0c3.3,0,6.8-0.2,10-0.8c16-3.4,29.1-11.2,37.8-25.6c5.5-9,6.6-19,4.5-28.9c-3.4-17.1-15.3-27.8-29.9-35.8
		c-14.4-7.8-30.4-10.3-45.9-14.8c-12.3-3.5-24.8-6.9-37.2-10.2h-126.3C1185.7,84.1,1199.8,91.2,1215.4,95.5z"/>
	<path class="st0" d="M393,73c-1.2,0-2.5,0.1-3.7,0.2c0,14.1,0,27.9,0,41.9c7.8,0,15.4-0.1,22.8,0c4.9,0.1,9.8,0.1,14.6,0.9
		c6.3,1.1,12.2,9.7,11.3,15.4c-1.7,11-9.2,15.6-18.7,15.6c-16.1,0.1-32.1-0.4-48.2-0.7c-4.2-0.1-8.5-0.3-12.7-0.8
		c-10.9-1.2-19.1-7.3-25.6-15.7c-6.5-8.3-9.7-18.1-11.6-28.3c-1.6-8.5-2.7-17-0.8-25.6c0.2-1,0.4-1.9,0.7-2.9h-62.1
		c-0.8,3.2-1.5,6.4-1.6,9.6c-0.5,13.7-0.6,27.4,3.4,40.9c6.3,20.6,18.3,36.7,36,48.3c16.6,10.8,35.2,15.8,55.1,15.8
		c25.7,0.1,51.4-0.1,77.1,0.1c12.3,0.1,24.3-1.6,35.6-6.4c10.4-4.3,19.2-10.8,24.3-21.4c6.2-12.9,8.3-26.4,6.2-40.6
		c-2.9-20-14-32.9-32.8-40.1c-11.8-4.5-24.2-5.4-36.5-6c-1.1-0.1-2.2-0.1-3.3-0.1h-24.8C396.1,73,394.5,73,393,73z"/>
	<path class="st0" d="M626.9,117.8c1.2,13.6,7.9,25.5,16.9,35.7c8.7,9.8,19.4,17,31.5,22.2c17.8,7.7,36.6,11.3,55.8,11.6
		c38.4,0.6,76.9,0.2,115.3,0.2c1.5,0,3,0,4.4,0c0-14,0-27.6,0-41.3c-2.1,0-3.9,0-5.8,0c-37.1-0.3-74.2-0.1-111.3-1
		c-13.3-0.3-25-6.7-34-16.8c-9.4-10.6-13.9-23.2-13.9-37.5c0-6,0-12,0-18.1h-61.2C625.3,88,625.6,102.9,626.9,117.8z"/>
	<path class="st0" d="M1413,1.2c-1.8,0-3.3,0-4.9,0c-59.3,0-118.8,0-178.1,0.1c-6.4,0-12.8,0.6-19.2,1.5c-15.8,2.3-29.1,9.1-39,21.8
		c-3.8,5-6,10.4-6.8,16.3H1413C1413,27.7,1413,14.7,1413,1.2z"/>
	<path class="st0" d="M1743.8,40.9c1.6,0,3,0,4.4,0c13.7,0,27.4,0,41.1,0h118.9c-3.2-9.4-10.1-16.3-17.4-22.5
		c-13.6-11.6-30-17-47.6-17.1c-51.5-0.4-103.1-0.1-154.7-0.1c-1.2,0-2.5,0-3.9,0c0,13.4,0,26.6,0,39.7H1743.8L1743.8,40.9z"/>
	<path class="st0" d="M86.4,40.9c23.8,0,47.6,0,71.4,0H168c21.4,0,42.8,0,64.2,0c1.5,0,3,0,4.5,0c0-13.5,0-26.6,0-39.7
		c-1.8,0-3.3,0-5,0c-42.5,0-85.2-0.1-127.8,0C89.2,1.2,74.5,1.4,59.7,2C48,2.5,37.2,6.8,27.1,12.7C18.4,17.9,11.9,25.5,6,33.4
		c-1.7,2.2-3.2,4.8-4.2,7.6h83.4C85.6,40.9,86,40.9,86.4,40.9z"/>
	<path class="st0" d="M1656.5,40.9c1.5,0,3,0,4.4,0c0-13.5,0-26.5,0-39.7c-1.7,0-3.2,0-4.8,0c-45.4,0-90.7-0.1-136,0.1
		c-10.8,0-21.7,0.2-32.3,1.7c-7.5,1.1-15.1,3.8-21.9,7.2c-9.8,4.6-17.7,12.1-23.9,21.2c-2.1,3-3.7,6.2-4.9,9.6h119.5
		C1589.9,40.9,1623.2,40.9,1656.5,40.9z"/>
	<path class="st0" d="M487,1.2c-1.9,0-3.4,0-5,0c-45.2,0-90.5-0.1-135.6,0.1c-7,0-14.1,0.8-20.9,2.5c-23.1,5.7-42,18-56.4,37.2H487
		C487,27.5,487,14.7,487,1.2z"/>
	<path class="st0" d="M1075.7,31c-4.6-9.1-10.4-17.2-20.1-21.4c-11.4-5.1-23.3-8.1-35.7-9c-18.3-1.3-36.4,0.3-53.5,7.8
		c-4.6,2-10,4.6-12.8,8.5c-5.6,7.4-9.6,16-14.1,24.1h141.5C1079.1,37.6,1077.4,34.4,1075.7,31z"/>
	<path class="st0" d="M685,1.5c-20.2,0-39.9,0-59.6,0c0,13.2,0,26.4,0,39.4H685C685,27.8,685,14.8,685,1.5z"/>
</g>
</svg>
