<svg id="Capa_1" data-name="Capa 1" xmlns="http://www.w3.org/2000/svg" viewBox="0 0 1080 1080"><defs><style>.cls-1{fill:#fff;}.cls-2{fill:none;stroke:#fff;stroke-miterlimit:10;stroke-width:20px;}</style></defs><title>Mesa de trabajo 1</title><path class="cls-1" d="M784.51,694.19h0Z"/><path class="cls-1" d="M203.85,448.06c.83,1.65,1.51,3.29,2.33,4.94,5.9,11.65,15.08,20.69,25.09,28.78a92.1,92.1,0,0,0,14.53,9.73c17,9.05,35.63,12.2,54.55,12.34,39.61.41,79.22-.14,119,.27,16.72.28,24,11.65,21.93,24.4-1.92,12.2-13.43,18.64-24.4,18.64H232.91a32.69,32.69,0,0,1-3.7-.14c-8-.41-15.9-1-24-1.37v56.47h6.58q112.88,0,225.61-.13A86.33,86.33,0,0,0,458,599.52c20.29-4.93,38-13.71,52.09-30.15,17.95-20.84,21-53.32,8.63-76.76C508.28,473,491.14,461,470.86,453.55c-14.94-5.49-31-6.45-46.61-6.58-7.81-.14-15.62-.14-23.43-.14h-197Z"/><path class="cls-1" d="M431.43,731.53H376.25c5.93-12.59,11.75-25,17.57-37.4H359.1c-2.31,4.88-4.56,9.76-6.82,14.64-5.66,12.38-11.27,24.7-16.88,37.08-1.11,2.46-2.16,5-3.31,7.66H475.9q-13.75-30-27.22-59.38H413.91C419.73,706.62,425.5,718.94,431.43,731.53Z"/><path class="cls-1" d="M624.81,724a25.17,25.17,0,0,0,6.76,17.15c7.34,8.24,17,11.8,27.64,12,26.75.31,53.55.1,80.3.1h2V731.79h-73.9c-5.09,0-9.55-1.78-11.23-6.92-.89-2.62-.47-5.66-.68-8.92h85.86V694.19H624.81C624.81,704.1,624.75,714.07,624.81,724Z"/><path class="cls-1" d="M870.58,694.13H828.25c-13.79,0-27.64,0-41.43,0H754v59.38h30.73v-37.4a6.9,6.9,0,0,1,.69-.16H838a3.63,3.63,0,0,1,1.68.42c3.2,1.58,4,4.46,4,7.71v29.37H876v-2.36c0-8.49,0-17,0-25.49.06-4-.31-8.07-2.15-11.59-2.25-4.35-4.35-9.23-10.12-10.17C866.7,701.06,869.74,698.17,870.58,694.13Z"/><path class="cls-1" d="M510.42,705.88c11.48,3.15,22.92,6.4,34.4,9.6,8.45,2.36,16.89,4.67,25.28,7,3.36.94,6.66,2,10,3.15,1.73.63,2,2.15,1.57,3.72-.63,2.2-1.57,2.78-4.51,2.78H490.59V754.4h95.46a28.93,28.93,0,0,0,5.19-.42c8.29-1.78,15.1-5.82,19.61-13.27a20.41,20.41,0,0,0,2.37-15c-1.79-8.86-7.92-14.42-15.53-18.57-7.45-4-15.79-5.35-23.81-7.66-6.4-1.83-12.85-3.56-19.3-5.29H489C495,700,502.29,703.63,510.42,705.88Z"/><path class="cls-1" d="M736.76,447.1c-1.64,0-3.42.14-5.07.28v56.88c10.56,0,20.84-.14,31,0,6.58.14,13.29.14,19.74,1.23,8.49,1.51,16.58,13.16,15.35,20.84-2.33,14.94-12.48,21.11-25.36,21.11-21.79.13-43.59-.55-65.38-1-5.76-.14-11.51-.42-17.27-1.1-14.8-1.65-25.91-9.87-34.68-21.25s-13.16-24.53-15.76-38.37c-2.19-11.52-3.7-23-1.1-34.68.28-1.37.55-2.61,1-4H555a61.68,61.68,0,0,0-2.2,13c-.68,18.65-.82,37.15,4.66,55.52q12.75,41.94,48.8,65.51c22.48,14.67,47.7,21.39,74.7,21.39,34.81.13,69.76-.14,104.58.13,16.72.14,32.89-2.19,48.25-8.63,14.11-5.9,26-14.67,32.89-29.06a93.1,93.1,0,0,0,8.36-55.1c-4-27.14-19-44.68-44.54-54.42-16-6.16-32.76-7.26-49.48-8.08-1.51-.14-3-.14-4.53-.14H742.93C741,447.1,738.82,447.1,736.76,447.1Z"/><path class="cls-1" d="M205,717.42c.63,7.08,4.09,13.22,8.76,18.52a45.75,45.75,0,0,0,16.36,11.53,75.51,75.51,0,0,0,28.95,6c19.93.31,39.92.1,59.85.1h2.3V732.16h-3c-19.24-.16-38.49,0-57.74-.52-6.92-.16-13-3.47-17.62-8.71a28.44,28.44,0,0,1-7.24-19.46v-9.39H203.85C204.17,702,204.33,709.71,205,717.42Z"/><path class="cls-1" d="M613,657h-2.51q-46.19,0-92.42,0a71.11,71.11,0,0,0-10,.79c-8.19,1.2-15.11,4.72-20.25,11.33a17.39,17.39,0,0,0-3.51,8.44H613Z"/><path class="cls-1" d="M784.62,677.56H870c-1.68-4.88-5.24-8.44-9-11.69a37.47,37.47,0,0,0-24.7-8.87c-26.75-.21-53.5,0-80.3,0h-2v20.61Z"/><path class="cls-1" d="M321,403.65H524.86V349.79h-6.72c-57.7,0-115.54-.14-173.25,0-20,0-40,.27-60,1.09-15.9.69-30.57,6.45-44.27,14.53-11.79,7-20.56,17.27-28.65,28a37.75,37.75,0,0,0-5.76,10.28H321Z"/><path class="cls-1" d="M739.3,677.56h2.31V657h-2.47c-23.55,0-47-.05-70.59,0a120.31,120.31,0,0,0-16.79.89,40.42,40.42,0,0,0-11.38,3.73,31.21,31.21,0,0,0-12.37,11,18.4,18.4,0,0,0-2.52,5h62Q713.37,677.53,739.3,677.56Z"/><path class="cls-1" d="M864.37,349.79h-6.72c-61.26,0-122.67-.14-183.94.13a116.49,116.49,0,0,0-28.37,3.43c-31.39,7.68-57,24.4-76.48,50.44H864.37Z"/><path class="cls-1" d="M437.88,672.42c-2.41-4.72-5.4-8.92-10.44-11.12a55.82,55.82,0,0,0-18.51-4.67c-9.5-.68-18.88.16-27.75,4-2.41,1.05-5.19,2.42-6.66,4.41-2.88,3.83-5,8.29-7.34,12.48h73.43C439.66,675.83,438.77,674.15,437.88,672.42Z"/><path class="cls-1" d="M235.17,657.11H204.22v20.45h30.95Z"/><circle class="cls-2" cx="540" cy="540" r="518.5"/></svg>