<svg id="Capa_1" data-name="Capa 1" xmlns="http://www.w3.org/2000/svg" viewBox="0 0 480 480"><defs><style>.cls-1{fill:#fff;}.cls-2{fill:#1383c5;}</style></defs><title>Mesa de trabajo 1</title><circle class="cls-1" cx="240" cy="240" r="235"/><path class="cls-2" d="M480,240c0,132.55-107.45,240-240,240S0,372.55,0,240,107.45,0,240,0,480,107.45,480,240ZM240,40C129.54,40,40,129.54,40,240s89.54,200,200,200,200-89.54,200-200S350.46,40,240,40Z"/><rect class="cls-2" x="32.71" y="277.5" width="414.58" height="23"/><rect class="cls-2" x="198.61" y="249.11" width="82.78" height="20" transform="translate(-19.11 499.11) rotate(-90)"/><polygon class="cls-2" points="310 102.72 170 102.72 210 217.72 270 217.72 310 102.72"/></svg>