<svg id="Layer_1" data-name="Layer 1" xmlns="http://www.w3.org/2000/svg" viewBox="0 0 80 80"><defs><style>.cls-1,.cls-3{fill:#fff;}.cls-1{stroke:#1383c5;stroke-miterlimit:10;stroke-width:4.8px;}.cls-2{fill:#1383c5;}</style></defs><circle class="cls-1" cx="40" cy="40" r="37.49"/><path class="cls-2" d="M48.8,21.49,67.13,32.24l-34,22-19-11.4L48.8,21.49m0-1.4-37,22.77L33.13,55.67,69.42,32.19,48.78,20.09Z"/><polygon class="cls-2" points="69.42 32.19 69.42 37.88 33.13 61.36 11.78 48.55 11.78 42.86 33.13 55.67 69.42 32.19"/><polygon class="cls-3" points="64.86 35.3 66.76 34.06 66.76 37.96 64.86 39.21 64.86 35.3"/><rect class="cls-2" x="25.01" y="45.74" width="9.22" height="1.61"/><rect class="cls-2" x="23.49" y="43.21" width="5.66" height="2.62" transform="translate(-18.2 70.84) rotate(-90)"/><polygon class="cls-2" points="39.3 39.61 27.12 47.09 25.26 45.95 37.45 38.47 39.3 39.61"/><rect class="cls-2" x="47.1" y="27.75" width="9.22" height="1.61" transform="translate(103.41 57.11) rotate(180)"/><rect class="cls-2" x="52.18" y="29.27" width="5.66" height="2.62" transform="translate(85.58 -24.43) rotate(90)"/><polygon class="cls-2" points="42.02 35.49 54.21 28.01 56.06 29.15 43.88 36.63 42.02 35.49"/></svg>