<svg id="Layer_1" data-name="Layer 1" xmlns="http://www.w3.org/2000/svg" viewBox="0 0 80 80"><defs><style>.cls-1,.cls-3{fill:#fff;}.cls-1{stroke:#1383c5;stroke-miterlimit:10;stroke-width:4.8px;}.cls-2{fill:#1383c5;}</style></defs><circle class="cls-1" cx="40" cy="40" r="37.49"/><path class="cls-2" d="M45.45,18.49,66.22,31.28l-11,6.59L34.88,24.69l10.57-6.2m0-1.4L32.59,24.64,55.22,39.28l13.32-8L45.46,17.09Z"/><polygon class="cls-2" points="32.59 24.64 32.59 36.17 55.22 50.82 68.53 42.83 68.53 31.29 55.22 39.28 32.59 24.64"/><polygon class="cls-3" points="35.46 26.84 34.27 26.06 34.27 36.17 35.46 36.95 35.46 26.84"/><path class="cls-2" d="M23.78,39.13,44.56,51.91l-11,6.59L13.22,45.32l10.56-6.19m0-1.4L10.93,45.27,33.56,59.91l13.31-8L23.8,37.73Z"/><polygon class="cls-2" points="10.93 45.27 10.93 48.82 33.56 63.46 46.88 55.48 46.88 51.92 33.56 59.91 10.93 45.27"/><polygon class="cls-3" points="13.77 47.21 12.59 46.44 12.59 48.87 13.77 49.65 13.77 47.21"/></svg>