<svg id="Layer_1" data-name="Layer 1" xmlns="http://www.w3.org/2000/svg" viewBox="0 0 80 80"><defs><style>.cls-1{fill:#fff;stroke-width:4.8px;}.cls-1,.cls-3{stroke:#1383c5;stroke-miterlimit:10;}.cls-2{fill:#1383c5;}.cls-3{fill:none;stroke-width:1.2px;}</style></defs><circle class="cls-1" cx="40" cy="40" r="37.49"/><circle class="cls-2" cx="25.96" cy="24.88" r="1.29"/><circle class="cls-2" cx="29.97" cy="24.88" r="1.29"/><circle class="cls-2" cx="33.98" cy="24.88" r="1.29"/><circle class="cls-2" cx="37.99" cy="24.88" r="1.29"/><circle class="cls-2" cx="42" cy="24.88" r="1.29"/><circle class="cls-2" cx="46.02" cy="24.88" r="1.29"/><circle class="cls-2" cx="50.03" cy="24.88" r="1.29"/><circle class="cls-2" cx="54.04" cy="24.88" r="1.29"/><circle class="cls-2" cx="25.96" cy="28.66" r="1.29"/><circle class="cls-2" cx="29.97" cy="28.66" r="1.29"/><circle class="cls-2" cx="33.98" cy="28.66" r="1.29"/><circle class="cls-2" cx="37.99" cy="28.66" r="1.29"/><circle class="cls-2" cx="42" cy="28.66" r="1.29"/><circle class="cls-2" cx="46.02" cy="28.66" r="1.29"/><circle class="cls-2" cx="50.03" cy="28.66" r="1.29"/><circle class="cls-2" cx="54.04" cy="28.66" r="1.29"/><circle class="cls-2" cx="25.96" cy="32.44" r="1.29"/><circle class="cls-2" cx="29.97" cy="32.44" r="1.29"/><circle class="cls-2" cx="33.98" cy="32.44" r="1.29"/><circle class="cls-2" cx="37.99" cy="32.44" r="1.29"/><circle class="cls-2" cx="42" cy="32.44" r="1.29"/><circle class="cls-2" cx="46.02" cy="32.44" r="1.29"/><circle class="cls-2" cx="50.03" cy="32.44" r="1.29"/><circle class="cls-2" cx="54.04" cy="32.44" r="1.29"/><circle class="cls-2" cx="25.96" cy="36.22" r="1.29"/><circle class="cls-2" cx="29.97" cy="36.22" r="1.29"/><circle class="cls-2" cx="33.98" cy="36.22" r="1.29"/><circle class="cls-2" cx="37.99" cy="36.22" r="1.29"/><circle class="cls-2" cx="42" cy="36.22" r="1.29"/><circle class="cls-2" cx="46.02" cy="36.22" r="1.29"/><circle class="cls-2" cx="50.03" cy="36.22" r="1.29"/><circle class="cls-2" cx="54.04" cy="36.22" r="1.29"/><circle class="cls-2" cx="25.96" cy="40" r="1.29"/><circle class="cls-2" cx="29.97" cy="40" r="1.29"/><circle class="cls-2" cx="33.98" cy="40" r="1.29"/><circle class="cls-2" cx="37.99" cy="40" r="1.29"/><circle class="cls-2" cx="42" cy="40" r="1.29"/><circle class="cls-2" cx="46.02" cy="40" r="1.29"/><circle class="cls-2" cx="50.03" cy="40" r="1.29"/><circle class="cls-2" cx="54.04" cy="40" r="1.29"/><circle class="cls-2" cx="25.96" cy="43.78" r="1.29"/><circle class="cls-2" cx="29.97" cy="43.78" r="1.29"/><circle class="cls-2" cx="33.98" cy="43.78" r="1.29"/><circle class="cls-2" cx="37.99" cy="43.78" r="1.29"/><circle class="cls-2" cx="42" cy="43.78" r="1.29"/><circle class="cls-2" cx="46.02" cy="43.78" r="1.29"/><circle class="cls-2" cx="50.03" cy="43.78" r="1.29"/><circle class="cls-2" cx="54.04" cy="43.78" r="1.29"/><circle class="cls-2" cx="25.96" cy="47.56" r="1.29"/><circle class="cls-2" cx="29.97" cy="47.56" r="1.29"/><circle class="cls-2" cx="33.98" cy="47.56" r="1.29"/><circle class="cls-2" cx="37.99" cy="47.56" r="1.29"/><circle class="cls-2" cx="42" cy="47.56" r="1.29"/><circle class="cls-2" cx="46.02" cy="47.56" r="1.29"/><circle class="cls-2" cx="50.03" cy="47.56" r="1.29"/><circle class="cls-2" cx="54.04" cy="47.56" r="1.29"/><circle class="cls-2" cx="25.96" cy="51.34" r="1.29"/><circle class="cls-2" cx="29.97" cy="51.34" r="1.29"/><circle class="cls-2" cx="33.98" cy="51.34" r="1.29"/><circle class="cls-2" cx="37.99" cy="51.34" r="1.29"/><circle class="cls-2" cx="42" cy="51.34" r="1.29"/><circle class="cls-2" cx="46.02" cy="51.34" r="1.29"/><circle class="cls-2" cx="50.03" cy="51.34" r="1.29"/><circle class="cls-2" cx="54.04" cy="51.34" r="1.29"/><circle class="cls-2" cx="25.96" cy="55.12" r="1.29"/><circle class="cls-2" cx="29.97" cy="55.12" r="1.29"/><circle class="cls-2" cx="33.98" cy="55.12" r="1.29"/><circle class="cls-2" cx="37.99" cy="55.12" r="1.29"/><circle class="cls-2" cx="42" cy="55.12" r="1.29"/><circle class="cls-2" cx="46.02" cy="55.12" r="1.29"/><circle class="cls-2" cx="50.03" cy="55.12" r="1.29"/><circle class="cls-2" cx="54.04" cy="55.12" r="1.29"/><polyline class="cls-3" points="48.13 20.65 58.47 20.65 58.47 30.98"/><polyline class="cls-3" points="21.53 30.98 21.53 20.65 31.86 20.65"/><polyline class="cls-3" points="58.47 49.02 58.47 59.35 48.13 59.35"/><polyline class="cls-3" points="31.86 59.35 21.53 59.35 21.53 49.02"/></svg>